# xmcd CD database file
#
# Track frame offsets:
#	150
#	15215
#	30606
#	43121
#	57866
#	71451
#	86789
#	99604
#	113873
#	127937
#	142071
#	155406
#	170845
#	184281
#	197780
#	210302
#	221297
#	235077
#	251591
#	264360
#	276928
#	289302
#	302586
#	316001
#	324918
#
# Disc length: 4470 seconds
#
# Revision: 0
# Processed by: cddbd v1.5.2PL0 Copyright (c) Steve Scherf et al.
# Submitted via: CDex 1.51
#
DISCID=63117419
DTITLE=Grand Jojo - Grand Best Of
DYEAR=2012
DGENRE=Ambiance
TTITLE0=On A Soif !
TTITLE1=Jules César
TTITLE2=Victor Le Footballiste
TTITLE3=Viens Boire Un P'tit Coup À La Maison
TTITLE4=E Viva Mexico
TTITLE5=Le Tango Du Congo
TTITLE6=Angelina
TTITLE7=Le French Can Can
TTITLE8=Agadou
TTITLE9=Cowboy Joe
TTITLE10=Valencia
TTITLE11=Sergent Flagada
TTITLE12=Ookie Pookie
TTITLE13=La Mer Du Nord
TTITLE14=Sitting Bull
TTITLE15=La Petite BêTe À Bon Dieu
TTITLE16=Patrouille De Nuit
TTITLE17=Jim La Jungle
TTITLE18=Max Le Clochard
TTITLE19=Il Fait Chaud
TTITLE20=Ma Tute
TTITLE21=Vive Les Saints
TTITLE22=Le Disc Jockey
TTITLE23=La Règle D'or
TTITLE24=Les Dessins Animés
EXTD=YEAR: 2012
EXTT0=
EXTT1=
EXTT2=
EXTT3=
EXTT4=
EXTT5=
EXTT6=
EXTT7=
EXTT8=
EXTT9=
EXTT10=
EXTT11=
EXTT12=
EXTT13=
EXTT14=
EXTT15=
EXTT16=
EXTT17=
EXTT18=
EXTT19=
EXTT20=
EXTT21=
EXTT22=
EXTT23=
EXTT24=
PLAYORDER=
